<mxfile host="Electron" agent="Mozilla/5.0 (X11; Linux x86_64) AppleWebKit/537.36 (KHTML, like Gecko) draw.io/24.7.17 Chrome/128.0.6613.36 Electron/32.0.1 Safari/537.36" version="24.7.17">
  <diagram name="Page-1" id="nEWsvVfValoRGiLiRRxU">
    <mxGraphModel dx="1311" dy="826" grid="0" gridSize="10" guides="0" tooltips="1" connect="0" arrows="0" fold="1" page="1" pageScale="1" pageWidth="827" pageHeight="1169" math="0" shadow="0">
      <root>
        <mxCell id="0" />
        <mxCell id="1" parent="0" />
        <mxCell id="pPDV6Q1o506wVdt6MEP3-21" value="" style="line;strokeWidth=2;html=1;fillColor=#d5e8d4;gradientColor=#97d077;strokeColor=#82b366;movable=0;resizable=0;rotatable=0;deletable=0;editable=0;locked=1;connectable=0;" vertex="1" parent="1">
          <mxGeometry x="134" y="111" width="607" height="10" as="geometry" />
        </mxCell>
        <mxCell id="pPDV6Q1o506wVdt6MEP3-7" value="" style="group;movable=1;resizable=1;rotatable=1;deletable=1;editable=1;locked=0;connectable=1;" vertex="1" connectable="0" parent="1">
          <mxGeometry x="133" y="180" width="610" height="467" as="geometry" />
        </mxCell>
        <mxCell id="pPDV6Q1o506wVdt6MEP3-1" value="" style="rounded=0;whiteSpace=wrap;html=1;movable=0;resizable=0;rotatable=0;deletable=0;editable=0;locked=1;connectable=0;" vertex="1" parent="pPDV6Q1o506wVdt6MEP3-7">
          <mxGeometry x="2" y="344.00333333333333" width="272.6890756302521" height="117.77777777777777" as="geometry" />
        </mxCell>
        <mxCell id="pPDV6Q1o506wVdt6MEP3-4" value="" style="rounded=0;whiteSpace=wrap;html=1;movable=1;resizable=1;rotatable=1;deletable=1;editable=1;locked=0;connectable=1;" vertex="1" parent="pPDV6Q1o506wVdt6MEP3-7">
          <mxGeometry x="317.31092436974785" y="206.11111111111111" width="272.6890756302521" height="117.77777777777777" as="geometry" />
        </mxCell>
        <mxCell id="pPDV6Q1o506wVdt6MEP3-2" value="" style="shape=card;whiteSpace=wrap;html=1;size=40;movable=0;resizable=0;rotatable=0;deletable=0;editable=0;locked=1;connectable=0;" vertex="1" parent="pPDV6Q1o506wVdt6MEP3-7">
          <mxGeometry x="123.94957983193275" width="297.47899159663865" height="530" as="geometry" />
        </mxCell>
        <mxCell id="pPDV6Q1o506wVdt6MEP3-3" value="" style="shape=card;whiteSpace=wrap;html=1;size=34;movable=0;resizable=0;rotatable=0;deletable=0;editable=0;locked=1;connectable=0;" vertex="1" parent="pPDV6Q1o506wVdt6MEP3-7">
          <mxGeometry x="148.73949579831933" y="38.27777777777778" width="247.8991596638655" height="432.8333333333333" as="geometry" />
        </mxCell>
        <mxCell id="pPDV6Q1o506wVdt6MEP3-5" value="" style="rounded=0;whiteSpace=wrap;html=1;movable=1;resizable=1;rotatable=1;deletable=1;editable=1;locked=0;connectable=1;" vertex="1" parent="pPDV6Q1o506wVdt6MEP3-7">
          <mxGeometry x="371.8487394957983" y="206.11111111111111" width="24.789915966386555" height="117.77777777777777" as="geometry" />
        </mxCell>
        <mxCell id="pPDV6Q1o506wVdt6MEP3-6" value="" style="rounded=0;whiteSpace=wrap;html=1;movable=0;resizable=0;rotatable=0;deletable=0;editable=0;locked=1;connectable=0;" vertex="1" parent="pPDV6Q1o506wVdt6MEP3-7">
          <mxGeometry x="148.73949579831933" y="344.00333333333333" width="24.789915966386555" height="117.77777777777777" as="geometry" />
        </mxCell>
        <mxCell id="pPDV6Q1o506wVdt6MEP3-12" value="" style="shape=singleArrow;direction=north;whiteSpace=wrap;html=1;arrowWidth=0.5555555555555538;arrowSize=0.5555555555555566;fillColor=#e51400;fontColor=#ffffff;strokeColor=#B20000;rotation=-180;movable=0;resizable=0;rotatable=0;deletable=0;editable=0;locked=1;connectable=0;" vertex="1" parent="pPDV6Q1o506wVdt6MEP3-7">
          <mxGeometry x="434" y="152" width="21" height="54" as="geometry" />
        </mxCell>
        <mxCell id="pPDV6Q1o506wVdt6MEP3-13" value="" style="shape=singleArrow;direction=north;whiteSpace=wrap;html=1;arrowWidth=0.5555555555555538;arrowSize=0.5555555555555566;fillColor=#e51400;fontColor=#ffffff;strokeColor=#B20000;rotation=-180;movable=1;resizable=1;rotatable=1;deletable=1;editable=1;locked=0;connectable=1;" vertex="1" parent="pPDV6Q1o506wVdt6MEP3-7">
          <mxGeometry x="367" y="264.0043396226415" width="21" height="47.5811320754717" as="geometry" />
        </mxCell>
        <mxCell id="pPDV6Q1o506wVdt6MEP3-14" value="" style="shape=singleArrow;direction=north;whiteSpace=wrap;html=1;arrowWidth=0.5555555555555538;arrowSize=0.5555555555555566;fillColor=#e51400;fontColor=#ffffff;strokeColor=#B20000;rotation=-180;movable=0;resizable=0;rotatable=0;deletable=0;editable=0;locked=1;connectable=0;" vertex="1" parent="pPDV6Q1o506wVdt6MEP3-7">
          <mxGeometry x="267" y="417" width="21" height="54" as="geometry" />
        </mxCell>
        <mxCell id="pPDV6Q1o506wVdt6MEP3-15" value="" style="shape=singleArrow;direction=north;whiteSpace=wrap;html=1;arrowWidth=0.5555555555555538;arrowSize=0.5555555555555566;fillColor=#e51400;fontColor=#ffffff;strokeColor=#B20000;rotation=-180;movable=1;resizable=1;rotatable=1;deletable=1;editable=1;locked=0;connectable=1;" vertex="1" parent="pPDV6Q1o506wVdt6MEP3-7">
          <mxGeometry x="157" y="402.00056603773584" width="21" height="47.5811320754717" as="geometry" />
        </mxCell>
        <mxCell id="pPDV6Q1o506wVdt6MEP3-19" value="" style="shape=singleArrow;direction=north;whiteSpace=wrap;html=1;arrowWidth=0.5555555555555538;arrowSize=0.5555555555555566;fillColor=#e51400;fontColor=#ffffff;strokeColor=#B20000;rotation=-180;movable=0;resizable=0;rotatable=0;deletable=0;editable=0;locked=1;connectable=0;" vertex="1" parent="pPDV6Q1o506wVdt6MEP3-7">
          <mxGeometry x="23" y="289" width="21" height="54" as="geometry" />
        </mxCell>
        <mxCell id="pPDV6Q1o506wVdt6MEP3-26" value="fe" style="text;html=1;align=center;verticalAlign=middle;whiteSpace=wrap;rounded=0;fontStyle=1;fillColor=#ffff88;strokeColor=#36393d;movable=1;resizable=1;rotatable=1;deletable=1;editable=1;locked=0;connectable=1;" vertex="1" parent="pPDV6Q1o506wVdt6MEP3-7">
          <mxGeometry x="137" y="374.99547169811325" width="60" height="26.433962264150942" as="geometry" />
        </mxCell>
        <mxCell id="pPDV6Q1o506wVdt6MEP3-23" value="voute" style="text;html=1;align=center;verticalAlign=middle;whiteSpace=wrap;rounded=0;fontStyle=1;fillColor=#ffff88;strokeColor=#36393d;movable=1;resizable=1;rotatable=1;deletable=1;editable=1;locked=0;connectable=1;" vertex="1" parent="pPDV6Q1o506wVdt6MEP3-7">
          <mxGeometry x="197" y="94" width="60" height="30" as="geometry" />
        </mxCell>
        <mxCell id="pPDV6Q1o506wVdt6MEP3-27" value="fe" style="text;html=1;align=center;verticalAlign=middle;whiteSpace=wrap;rounded=0;fontStyle=1;fillColor=#ffff88;strokeColor=#36393d;movable=1;resizable=1;rotatable=1;deletable=1;editable=1;locked=0;connectable=1;" vertex="1" parent="pPDV6Q1o506wVdt6MEP3-7">
          <mxGeometry x="349" y="233" width="60" height="30" as="geometry" />
        </mxCell>
        <mxCell id="pPDV6Q1o506wVdt6MEP3-25" value="gs" style="text;html=1;align=center;verticalAlign=middle;whiteSpace=wrap;rounded=0;fontStyle=1;fillColor=#ffff88;strokeColor=#36393d;movable=1;resizable=1;rotatable=1;deletable=1;editable=1;locked=0;connectable=1;" vertex="1" parent="pPDV6Q1o506wVdt6MEP3-7">
          <mxGeometry x="5" y="258" width="60" height="30" as="geometry" />
        </mxCell>
        <mxCell id="pPDV6Q1o506wVdt6MEP3-28" value="radier" style="text;html=1;align=center;verticalAlign=middle;whiteSpace=wrap;rounded=0;fontStyle=1;fillColor=#ffff88;strokeColor=#36393d;movable=1;resizable=1;rotatable=1;deletable=1;editable=1;locked=0;connectable=1;" vertex="1" parent="pPDV6Q1o506wVdt6MEP3-7">
          <mxGeometry x="248" y="386" width="60" height="30" as="geometry" />
        </mxCell>
        <mxCell id="pPDV6Q1o506wVdt6MEP3-24" value="gs" style="text;html=1;align=center;verticalAlign=middle;whiteSpace=wrap;rounded=0;fontStyle=1;fillColor=#ffff88;strokeColor=#36393d;movable=1;resizable=1;rotatable=1;deletable=1;editable=1;locked=0;connectable=1;" vertex="1" parent="pPDV6Q1o506wVdt6MEP3-7">
          <mxGeometry x="416" y="120" width="60" height="30" as="geometry" />
        </mxCell>
        <mxCell id="pPDV6Q1o506wVdt6MEP3-36" value="" style="shape=partialRectangle;whiteSpace=wrap;html=1;left=0;right=0;fillColor=none;dashed=1;dashPattern=8 8;strokeColor=#999999;movable=1;resizable=1;rotatable=1;deletable=1;editable=1;locked=0;connectable=1;" vertex="1" parent="pPDV6Q1o506wVdt6MEP3-7">
          <mxGeometry x="422" y="217" width="167" height="96" as="geometry" />
        </mxCell>
        <mxCell id="pPDV6Q1o506wVdt6MEP3-37" value="" style="shape=partialRectangle;whiteSpace=wrap;html=1;left=0;right=0;fillColor=none;dashed=1;dashPattern=8 8;strokeColor=#999999;movable=0;resizable=0;rotatable=0;deletable=0;editable=0;locked=1;connectable=0;" vertex="1" parent="pPDV6Q1o506wVdt6MEP3-7">
          <mxGeometry x="372" y="217" width="25" height="96" as="geometry" />
        </mxCell>
        <mxCell id="pPDV6Q1o506wVdt6MEP3-38" value="" style="shape=partialRectangle;whiteSpace=wrap;html=1;left=0;right=0;fillColor=none;dashed=1;dashPattern=8 8;strokeColor=#999999;" vertex="1" parent="pPDV6Q1o506wVdt6MEP3-7">
          <mxGeometry x="3" y="355" width="119" height="96" as="geometry" />
        </mxCell>
        <mxCell id="pPDV6Q1o506wVdt6MEP3-39" value="" style="shape=partialRectangle;whiteSpace=wrap;html=1;left=0;right=0;fillColor=none;dashed=1;dashPattern=8 8;strokeColor=#999999;" vertex="1" parent="pPDV6Q1o506wVdt6MEP3-7">
          <mxGeometry x="149" y="355" width="24" height="96" as="geometry" />
        </mxCell>
        <mxCell id="pPDV6Q1o506wVdt6MEP3-40" value="gi" style="text;html=1;align=center;verticalAlign=middle;whiteSpace=wrap;rounded=0;fontStyle=1;fillColor=#ffff88;strokeColor=#36393d;movable=1;resizable=1;rotatable=1;deletable=1;editable=1;locked=0;connectable=1;" vertex="1" parent="pPDV6Q1o506wVdt6MEP3-7">
          <mxGeometry x="323" y="450" width="60" height="30" as="geometry" />
        </mxCell>
        <mxCell id="pPDV6Q1o506wVdt6MEP3-42" value="gi" style="text;html=1;align=center;verticalAlign=middle;whiteSpace=wrap;rounded=0;fontStyle=1;fillColor=#ffff88;strokeColor=#36393d;movable=1;resizable=1;rotatable=1;deletable=1;editable=1;locked=0;connectable=1;" vertex="1" parent="pPDV6Q1o506wVdt6MEP3-7">
          <mxGeometry x="477" y="380" width="60" height="30" as="geometry" />
        </mxCell>
        <mxCell id="pPDV6Q1o506wVdt6MEP3-10" value="" style="shape=singleArrow;direction=north;whiteSpace=wrap;html=1;arrowWidth=0.5555555555555538;arrowSize=0.5555555555555566;fillColor=#e51400;fontColor=#ffffff;strokeColor=#B20000;movable=1;resizable=1;rotatable=1;deletable=1;editable=1;locked=0;connectable=1;" vertex="1" parent="pPDV6Q1o506wVdt6MEP3-7">
          <mxGeometry x="497" y="325" width="21" height="54" as="geometry" />
        </mxCell>
        <mxCell id="pPDV6Q1o506wVdt6MEP3-44" value="" style="shape=singleArrow;direction=north;whiteSpace=wrap;html=1;arrowWidth=0.5555555555555538;arrowSize=0.5555555555555566;fillColor=#e51400;fontColor=#ffffff;strokeColor=#B20000;movable=1;resizable=1;rotatable=1;deletable=1;editable=1;locked=0;connectable=1;" vertex="1" parent="pPDV6Q1o506wVdt6MEP3-7">
          <mxGeometry x="218" y="39" width="21" height="54" as="geometry" />
        </mxCell>
        <mxCell id="pPDV6Q1o506wVdt6MEP3-45" value="" style="shape=singleArrow;direction=north;whiteSpace=wrap;html=1;arrowWidth=0.5555555555555538;arrowSize=0.5555555555555566;fillColor=#e51400;fontColor=#ffffff;strokeColor=#B20000;movable=1;resizable=1;rotatable=1;deletable=1;editable=1;locked=0;connectable=1;" vertex="1" parent="pPDV6Q1o506wVdt6MEP3-7">
          <mxGeometry x="531" y="217" width="21" height="54" as="geometry" />
        </mxCell>
        <mxCell id="pPDV6Q1o506wVdt6MEP3-46" value="voute" style="text;html=1;align=center;verticalAlign=middle;whiteSpace=wrap;rounded=0;fontStyle=1;fillColor=#ffff88;strokeColor=#36393d;movable=1;resizable=1;rotatable=1;deletable=1;editable=1;locked=0;connectable=1;" vertex="1" parent="pPDV6Q1o506wVdt6MEP3-7">
          <mxGeometry x="512" y="273" width="60" height="30" as="geometry" />
        </mxCell>
        <mxCell id="pPDV6Q1o506wVdt6MEP3-11" value="" style="shape=singleArrow;direction=north;whiteSpace=wrap;html=1;arrowWidth=0.5555555555555538;arrowSize=0.5555555555555566;fillColor=#e51400;fontColor=#ffffff;strokeColor=#B20000;rotation=-180;movable=1;resizable=1;rotatable=1;deletable=1;editable=1;locked=0;connectable=1;" vertex="1" parent="1">
          <mxGeometry x="452" y="61" width="21" height="54" as="geometry" />
        </mxCell>
        <mxCell id="pPDV6Q1o506wVdt6MEP3-17" value="lit de pose" style="rounded=1;whiteSpace=wrap;html=1;strokeWidth=2;fillWeight=4;hachureGap=8;hachureAngle=45;fillColor=#CCCCCC;sketch=1;gradientColor=#b3b3b3;strokeColor=none;fillStyle=hachure;movable=1;resizable=1;rotatable=1;deletable=1;editable=1;locked=0;connectable=1;" vertex="1" parent="1">
          <mxGeometry x="167" y="718" width="472" height="53" as="geometry" />
        </mxCell>
        <mxCell id="pPDV6Q1o506wVdt6MEP3-18" value="" style="shape=singleArrow;direction=north;whiteSpace=wrap;html=1;arrowWidth=0.5555555555555538;arrowSize=0.5555555555555566;fillColor=#e51400;fontColor=#ffffff;strokeColor=#B20000;rotation=-180;movable=1;resizable=1;rotatable=1;deletable=1;editable=1;locked=0;connectable=1;" vertex="1" parent="1">
          <mxGeometry x="584" y="713" width="21" height="54" as="geometry" />
        </mxCell>
        <mxCell id="pPDV6Q1o506wVdt6MEP3-20" value="" style="shape=singleArrow;direction=north;whiteSpace=wrap;html=1;arrowWidth=0.5555555555555538;arrowSize=0.5555555555555566;fillColor=#e51400;fontColor=#ffffff;strokeColor=#B20000;rotation=-180;movable=1;resizable=1;rotatable=1;deletable=1;editable=1;locked=0;connectable=1;" vertex="1" parent="1">
          <mxGeometry x="291" y="62" width="21" height="54" as="geometry" />
        </mxCell>
        <mxCell id="pPDV6Q1o506wVdt6MEP3-29" value="fouille" style="text;html=1;align=center;verticalAlign=middle;whiteSpace=wrap;rounded=0;fontStyle=1;fillColor=#ffff88;strokeColor=#36393d;movable=1;resizable=1;rotatable=1;deletable=1;editable=1;locked=0;connectable=1;" vertex="1" parent="1">
          <mxGeometry x="565" y="682" width="60" height="30" as="geometry" />
        </mxCell>
        <mxCell id="pPDV6Q1o506wVdt6MEP3-30" value="topo" style="text;html=1;align=center;verticalAlign=middle;whiteSpace=wrap;rounded=0;fontStyle=1;fillColor=#ffff88;strokeColor=#36393d;movable=1;resizable=1;rotatable=1;deletable=1;editable=1;locked=0;connectable=1;" vertex="1" parent="1">
          <mxGeometry x="430" y="30" width="60" height="30" as="geometry" />
        </mxCell>
        <mxCell id="pPDV6Q1o506wVdt6MEP3-31" value="topo" style="text;html=1;align=center;verticalAlign=middle;whiteSpace=wrap;rounded=0;fontStyle=1;fillColor=#ffff88;strokeColor=#36393d;movable=1;resizable=1;rotatable=1;deletable=1;editable=1;locked=0;connectable=1;" vertex="1" parent="1">
          <mxGeometry x="271" y="30" width="60" height="30" as="geometry" />
        </mxCell>
        <mxCell id="pPDV6Q1o506wVdt6MEP3-32" value="" style="rounded=0;whiteSpace=wrap;html=1;movable=1;resizable=1;rotatable=1;deletable=1;editable=1;locked=0;connectable=1;" vertex="1" parent="1">
          <mxGeometry x="395" y="117" width="135" height="105" as="geometry" />
        </mxCell>
        <mxCell id="pPDV6Q1o506wVdt6MEP3-16" value="" style="shape=singleArrow;direction=north;whiteSpace=wrap;html=1;arrowWidth=0.5555555555555538;arrowSize=0.5555555555555566;fillColor=#e51400;fontColor=#ffffff;strokeColor=#B20000;rotation=-180;movable=1;resizable=1;rotatable=1;deletable=1;editable=1;locked=0;connectable=1;" vertex="1" parent="1">
          <mxGeometry x="474" y="661.9988679245283" width="21" height="47.5811320754717" as="geometry" />
        </mxCell>
        <mxCell id="pPDV6Q1o506wVdt6MEP3-33" value="" style="shape=singleArrow;direction=north;whiteSpace=wrap;html=1;arrowWidth=0.5555555555555538;arrowSize=0.5555555555555566;fillColor=#e51400;fontColor=#ffffff;strokeColor=#B20000;rotation=-180;movable=1;resizable=1;rotatable=1;deletable=1;editable=1;locked=0;connectable=1;" vertex="1" parent="1">
          <mxGeometry x="353" y="131.99886792452833" width="21" height="47.5811320754717" as="geometry" />
        </mxCell>
        <mxCell id="pPDV6Q1o506wVdt6MEP3-43" value="gs" style="text;html=1;align=center;verticalAlign=middle;whiteSpace=wrap;rounded=0;fontStyle=1;fillColor=#ffff88;strokeColor=#36393d;movable=1;resizable=1;rotatable=1;deletable=1;editable=1;locked=0;connectable=1;" vertex="1" parent="1">
          <mxGeometry x="335" y="102" width="60" height="30" as="geometry" />
        </mxCell>
      </root>
    </mxGraphModel>
  </diagram>
</mxfile>
